<svg width="77" height="48" viewBox="0 0 77 48" fill="none" xmlns="http://www.w3.org/2000/svg">
<rect width="77" height="23.9315" rx="11.9657" fill="white"/>
<path fill-rule="evenodd" clip-rule="evenodd" d="M9.17723 16.3888C9.56898 17.4973 10.0888 18.4387 10.7366 19.2129C11.0058 19.5346 11.4144 19.6958 11.8339 19.6958H13.2606C13.3481 19.6958 13.419 19.6248 13.419 19.5373C13.419 19.4974 13.404 19.4591 13.3771 19.4296C12.5136 18.484 11.8427 17.3693 11.3644 16.0856C10.8784 14.7812 10.6354 13.4263 10.6354 12.0208C10.6354 10.6061 10.8872 9.23282 11.3909 7.90084C11.8866 6.58104 12.5877 5.44804 13.4942 4.50186C13.5224 4.4724 13.5383 4.43324 13.5383 4.39243C13.5383 4.30581 13.4681 4.2356 13.3815 4.2356H11.9464C11.5387 4.2356 11.1407 4.38692 10.8705 4.69225C10.1711 5.48264 9.61554 6.45112 9.20374 7.5977C8.70887 8.96643 8.46143 10.4408 8.46143 12.0208C8.46143 13.5824 8.70003 15.0384 9.17723 16.3888ZM67.8228 7.54298C67.4311 6.43445 66.9113 5.49307 66.2635 4.71883C65.9943 4.39711 65.5857 4.23599 65.1662 4.23599H63.7394C63.6519 4.23599 63.581 4.30692 63.581 4.39442C63.581 4.4343 63.5961 4.47268 63.623 4.50214C64.4864 5.44776 65.1573 6.56242 65.6356 7.84612C66.1217 9.15054 66.3647 10.5055 66.3647 11.911C66.3647 13.3256 66.1128 14.6989 65.6091 16.0309C65.1134 17.3507 64.4123 18.4837 63.5059 19.4299C63.4776 19.4594 63.4617 19.4985 63.4617 19.5393C63.4617 19.6259 63.5319 19.6962 63.6185 19.6962H65.0537C65.4614 19.6962 65.8593 19.5448 66.1295 19.2395C66.8289 18.4491 67.3845 17.4806 67.7963 16.3341C68.2912 14.9653 68.5386 13.491 68.5386 11.911C68.5386 10.3493 68.3 8.89333 67.8228 7.54298ZM53.6251 17.5805C56.7187 17.5805 59.2308 15.069 59.2308 11.9658C59.2308 8.86259 56.7187 6.35111 53.6251 6.35111C50.5314 6.35111 48.0193 8.86259 48.0193 11.9658C48.0193 15.069 50.5314 17.5805 53.6251 17.5805ZM53.6251 19.6959C57.8893 19.6959 61.3462 16.235 61.3462 11.9658C61.3462 7.6966 57.8893 4.23573 53.6251 4.23573C49.3608 4.23573 45.9039 7.6966 45.9039 11.9658C45.9039 16.235 49.3608 19.6959 53.6251 19.6959ZM39.5577 11.9658C39.5577 15.069 37.0456 17.5805 33.9519 17.5805C30.8582 17.5805 28.3462 15.069 28.3462 11.9658C28.3462 8.86255 30.8582 6.35106 33.9519 6.35106C37.0456 6.35106 39.5577 8.86255 39.5577 11.9658ZM41.6731 11.9658C41.6731 16.235 38.2162 19.6958 33.9519 19.6958C29.6876 19.6958 26.2308 16.235 26.2308 11.9658C26.2308 7.69656 29.6876 4.23568 33.9519 4.23568C38.2162 4.23568 41.6731 7.69656 41.6731 11.9658Z" fill="#FF5840"/>
<path d="M21.4778 39.9306C21.4778 39.6691 21.5405 39.4442 21.666 39.2559C21.7916 39.0676 21.9799 38.9212 22.2309 38.8166C22.4924 38.712 22.8272 38.6597 23.2351 38.6597C23.6745 38.6597 24.0876 38.7172 24.4747 38.8323C24.8617 38.9369 25.2383 39.1147 25.6044 39.3657V38.6283C25.5312 38.5341 25.39 38.4138 25.1808 38.2674C24.9716 38.1105 24.6891 37.9745 24.3335 37.8594C23.9883 37.7339 23.5542 37.6711 23.0311 37.6711C22.142 37.6711 21.4464 37.8856 20.9443 38.3145C20.4526 38.7329 20.2068 39.2925 20.2068 39.9934C20.2068 40.485 20.3219 40.9034 20.552 41.2486C20.7821 41.5938 21.0855 41.8606 21.4621 42.0489C21.8491 42.2267 22.2623 42.3156 22.7016 42.3156C23.0991 42.3156 23.4966 42.2424 23.8941 42.0959C24.3021 41.9495 24.6421 41.7246 24.914 41.4212C25.1965 41.1179 25.3377 40.7361 25.3377 40.2758L25.0866 39.3344C25.0866 39.7109 24.9925 40.0457 24.8042 40.3386C24.6264 40.621 24.3805 40.8407 24.0667 40.9976C23.7634 41.1545 23.4182 41.2329 23.0311 41.2329C22.7278 41.2329 22.4558 41.1859 22.2152 41.0917C21.9851 40.9871 21.802 40.8354 21.666 40.6367C21.5405 40.4379 21.4778 40.2026 21.4778 39.9306ZM21.2895 36.6042C21.4045 36.5205 21.5614 36.4211 21.7602 36.306C21.9589 36.191 22.1995 36.0916 22.482 36.0079C22.7749 35.9242 23.0991 35.8824 23.4548 35.8824C23.6745 35.8824 23.8837 35.9033 24.0824 35.9452C24.2812 35.987 24.4538 36.055 24.6002 36.1491C24.7571 36.2433 24.8774 36.374 24.9611 36.5414C25.0448 36.6983 25.0866 36.9023 25.0866 37.1533V42.1587H26.3419V36.9808C26.3419 36.51 26.2216 36.1125 25.981 35.7883C25.7509 35.464 25.4214 35.2182 24.9925 35.0508C24.5741 34.873 24.0824 34.784 23.5176 34.784C22.8481 34.784 22.2728 34.8834 21.7916 35.0822C21.3208 35.2809 20.9495 35.4797 20.6775 35.6784L21.2895 36.6042ZM33.8804 29.9199V42.1587H35.1357V29.9199H33.8804ZM27.8395 38.5498C27.8395 39.3239 28.0016 39.9934 28.3259 40.5582C28.6502 41.1231 29.0843 41.5572 29.6282 41.8606C30.1722 42.1639 30.7684 42.3156 31.417 42.3156C32.0237 42.3156 32.5519 42.1639 33.0017 41.8606C33.4515 41.5572 33.802 41.1231 34.053 40.5582C34.3145 39.9934 34.4453 39.3239 34.4453 38.5498C34.4453 37.7653 34.3145 37.0958 34.053 36.5414C33.802 35.9765 33.4515 35.5424 33.0017 35.2391C32.5519 34.9357 32.0237 34.784 31.417 34.784C30.7684 34.784 30.1722 34.9357 29.6282 35.2391C29.0843 35.5424 28.6502 35.9765 28.3259 36.5414C28.0016 37.0958 27.8395 37.7653 27.8395 38.5498ZM29.1104 38.5498C29.1104 37.9954 29.2203 37.5247 29.4399 37.1377C29.6701 36.7506 29.9734 36.4577 30.35 36.259C30.7266 36.0602 31.1345 35.9609 31.5739 35.9609C31.94 35.9609 32.3009 36.0602 32.6565 36.259C33.0122 36.4577 33.3051 36.7506 33.5352 37.1377C33.7654 37.5247 33.8804 37.9954 33.8804 38.5498C33.8804 39.1042 33.7654 39.575 33.5352 39.962C33.3051 40.349 33.0122 40.6419 32.6565 40.8407C32.3009 41.0394 31.94 41.1388 31.5739 41.1388C31.1345 41.1388 30.7266 41.0394 30.35 40.8407C29.9734 40.6419 29.6701 40.349 29.4399 39.962C29.2203 39.575 29.1104 39.1042 29.1104 38.5498ZM40.2087 42.3156C40.9828 42.3156 41.6522 42.1639 42.2171 41.8606C42.7924 41.5468 43.2684 41.0865 43.645 40.4798L42.6251 39.8365C42.3635 40.2758 42.0445 40.6053 41.6679 40.825C41.2913 41.0342 40.8572 41.1388 40.3656 41.1388C39.874 41.1388 39.4555 41.0342 39.1103 40.825C38.7651 40.6158 38.5036 40.3124 38.3258 39.9149C38.148 39.5174 38.0591 39.0362 38.0591 38.4714C38.0695 37.917 38.1637 37.4515 38.3415 37.0749C38.5298 36.6879 38.7913 36.395 39.126 36.1962C39.4712 35.987 39.8844 35.8824 40.3656 35.8824C40.7736 35.8824 41.1292 35.9713 41.4326 36.1491C41.7359 36.327 41.9713 36.5728 42.1386 36.8866C42.3165 37.2004 42.4054 37.5718 42.4054 38.0006C42.4054 38.0739 42.3897 38.168 42.3583 38.2831C42.3269 38.3877 42.2956 38.4661 42.2642 38.5184L42.7663 37.7967H37.5883V38.8636H43.7548C43.7548 38.8427 43.7548 38.7956 43.7548 38.7224C43.7653 38.6387 43.7705 38.5603 43.7705 38.4871C43.7705 37.7234 43.6345 37.0644 43.3625 36.51C43.0906 35.9556 42.6983 35.532 42.1857 35.2391C41.6836 34.9357 41.0769 34.784 40.3656 34.784C39.6543 34.784 39.0267 34.941 38.4827 35.2548C37.9492 35.5686 37.5308 36.0079 37.2274 36.5728C36.9346 37.1377 36.7881 37.7967 36.7881 38.5498C36.7881 39.2925 36.9293 39.9463 37.2118 40.5112C37.5047 41.076 37.9074 41.5206 38.4199 41.8449C38.943 42.1587 39.5392 42.3156 40.2087 42.3156ZM46.7462 34.941H45.4909V42.1587H46.7462V34.941ZM48.9272 36.3217L49.6176 35.2862C49.4293 35.0874 49.2201 34.9566 48.99 34.8939C48.7703 34.8207 48.5297 34.784 48.2682 34.784C47.9335 34.784 47.604 34.9148 47.2797 35.1763C46.9554 35.4378 46.6887 35.7935 46.4795 36.2433C46.2807 36.6826 46.1813 37.19 46.1813 37.7653H46.7462C46.7462 37.4201 46.7776 37.1115 46.8403 36.8395C46.9136 36.5676 47.0391 36.3531 47.2169 36.1962C47.3948 36.0393 47.6406 35.9609 47.9544 35.9609C48.1636 35.9609 48.3362 35.9922 48.4722 36.055C48.6082 36.1073 48.7598 36.1962 48.9272 36.3217ZM51.4342 39.9306C51.4342 39.6691 51.4969 39.4442 51.6225 39.2559C51.748 39.0676 51.9363 38.9212 52.1873 38.8166C52.4488 38.712 52.7836 38.6597 53.1915 38.6597C53.6309 38.6597 54.0441 38.7172 54.4311 38.8323C54.8181 38.9369 55.1947 39.1147 55.5608 39.3657V38.6283C55.4876 38.5341 55.3464 38.4138 55.1372 38.2674C54.928 38.1105 54.6455 37.9745 54.2899 37.8594C53.9447 37.7339 53.5106 37.6711 52.9876 37.6711C52.0984 37.6711 51.4028 37.8856 50.9007 38.3145C50.4091 38.7329 50.1632 39.2925 50.1632 39.9934C50.1632 40.485 50.2783 40.9034 50.5084 41.2486C50.7386 41.5938 51.0419 41.8606 51.4185 42.0489C51.8055 42.2267 52.2187 42.3156 52.6581 42.3156C53.0556 42.3156 53.4531 42.2424 53.8506 42.0959C54.2585 41.9495 54.5985 41.7246 54.8704 41.4212C55.1529 41.1179 55.2941 40.7361 55.2941 40.2758L55.043 39.3344C55.043 39.7109 54.9489 40.0457 54.7606 40.3386C54.5828 40.621 54.337 40.8407 54.0231 40.9976C53.7198 41.1545 53.3746 41.2329 52.9876 41.2329C52.6842 41.2329 52.4122 41.1859 52.1716 41.0917C51.9415 40.9871 51.7585 40.8354 51.6225 40.6367C51.4969 40.4379 51.4342 40.2026 51.4342 39.9306ZM51.2459 36.6042C51.361 36.5205 51.5179 36.4211 51.7166 36.306C51.9154 36.191 52.156 36.0916 52.4384 36.0079C52.7313 35.9242 53.0556 35.8824 53.4112 35.8824C53.6309 35.8824 53.8401 35.9033 54.0388 35.9452C54.2376 35.987 54.4102 36.055 54.5566 36.1491C54.7135 36.2433 54.8338 36.374 54.9175 36.5414C55.0012 36.6983 55.043 36.9023 55.043 37.1533V42.1587H56.2983V36.9808C56.2983 36.51 56.178 36.1125 55.9374 35.7883C55.7073 35.464 55.3778 35.2182 54.9489 35.0508C54.5305 34.873 54.0388 34.784 53.474 34.784C52.8045 34.784 52.2292 34.8834 51.748 35.0822C51.2773 35.2809 50.9059 35.4797 50.634 35.6784L51.2459 36.6042Z" fill="white"/>
</svg>
