<svg width="24" height="24" viewBox="0 0 24 24" fill="none" xmlns="http://www.w3.org/2000/svg">
<path d="M5 13L16.86 13L13.23 17.36C13.0603 17.5642 12.9786 17.8275 13.003 18.0919C13.0274 18.3563 13.1558 18.6002 13.36 18.77C13.5642 18.9397 13.8275 19.0214 14.0919 18.997C14.3563 18.9726 14.6003 18.8442 14.77 18.64L19.77 12.64C19.8036 12.5922 19.8337 12.5421 19.86 12.49C19.86 12.44 19.86 12.41 19.93 12.36C19.9753 12.2453 19.9991 12.1233 20 12C19.9991 11.8767 19.9753 11.7546 19.93 11.64C19.93 11.59 19.93 11.56 19.86 11.51C19.8337 11.4578 19.8036 11.4077 19.77 11.36L14.77 5.35997C14.676 5.24709 14.5582 5.15631 14.4252 5.09408C14.2921 5.03186 14.1469 4.99973 14 4.99997C13.7663 4.99951 13.5399 5.08089 13.36 5.22997C13.2587 5.31392 13.175 5.41702 13.1137 5.53337C13.0523 5.64971 13.0145 5.77702 13.0025 5.908C12.9904 6.03897 13.0043 6.17104 13.0433 6.29665C13.0824 6.42225 13.1458 6.53892 13.23 6.63997L16.86 11L5 11C4.73478 11 4.48043 11.1053 4.29289 11.2929C4.10536 11.4804 4 11.7348 4 12C4 12.2652 4.10536 12.5195 4.29289 12.7071C4.48043 12.8946 4.73478 13 5 13Z" fill="white"/>
</svg>
