<svg width="48" height="48" viewBox="0 0 48 48" fill="none" xmlns="http://www.w3.org/2000/svg">
<path d="M19.0875 21.7661C19.5536 21.4286 19.7786 20.8714 19.7786 20.1054C19.7946 19.7411 19.7196 19.3821 19.5589 19.0554C19.4143 18.7929 19.2 18.5732 18.9375 18.4179C18.6653 18.2528 18.363 18.1435 18.0482 18.0964C17.7054 18.0321 17.3571 18 17.0143 18.0054H13.2482V22.275H17.325C18.0268 22.2804 18.6214 22.1089 19.0875 21.7661ZM19.7196 25.6232C19.1946 25.2214 18.4929 25.0232 17.6196 25.0232H13.2375V30.0589H17.5339C17.9357 30.0589 18.3054 30.0214 18.6643 29.9464C19.0039 29.88 19.3276 29.7491 19.6179 29.5607C19.8911 29.3839 20.1107 29.1429 20.2768 28.8321C20.4375 28.5214 20.5179 28.125 20.5179 27.6482C20.5179 26.7 20.25 26.0304 19.7196 25.6232ZM24 0C10.7464 0 0 10.7464 0 24C0 37.2536 10.7464 48 24 48C37.2536 48 48 37.2536 48 24C48 10.7464 37.2536 0 24 0ZM28.6339 15.3696H36.0482V17.175H28.6339V15.3696ZM24 30.2571C23.6532 30.9154 23.158 31.484 22.5536 31.9179C21.9214 32.3571 21.2196 32.6786 20.475 32.8661C19.6959 33.0748 18.8923 33.1776 18.0857 33.1714H9.21429V14.8982H17.8393C18.7125 14.8982 19.5054 14.9786 20.2286 15.1286C20.9464 15.2786 21.5571 15.5357 22.0714 15.8839C22.5804 16.2321 22.9821 16.6982 23.2661 17.2768C23.5446 17.85 23.6893 18.5679 23.6893 19.4196C23.6893 20.3411 23.4804 21.1018 23.0625 21.7179C22.6393 22.3339 22.0286 22.8321 21.1982 23.2232C22.3286 23.5446 23.1589 24.1179 23.7054 24.9214C24.2625 25.7357 24.5357 26.7107 24.5357 27.8571C24.5357 28.7893 24.3589 29.5875 24 30.2571ZM38.9357 27.4286H29.3786C29.3786 28.4679 29.7375 29.4643 30.2786 30C30.825 30.5304 31.6071 30.7982 32.6304 30.7982C33.3696 30.7982 33.9964 30.6107 34.5321 30.2411C35.0625 29.8714 35.3839 29.4804 35.5018 29.0732H38.7054C38.1911 30.6643 37.4089 31.8 36.3482 32.4857C35.2982 33.1714 34.0125 33.5143 32.5179 33.5143C31.4732 33.5143 30.5357 33.3429 29.6946 33.0161C28.8857 32.7 28.1571 32.2179 27.5571 31.5964C26.9656 30.9583 26.5083 30.2077 26.2125 29.3893C25.8857 28.4839 25.725 27.5304 25.7357 26.5714C25.7357 25.5804 25.9018 24.6589 26.2232 23.8018C26.8393 22.1357 28.1196 20.8018 29.7536 20.1107C30.6268 19.7464 31.5643 19.5643 32.5125 19.575C33.6375 19.575 34.6125 19.7893 35.4589 20.2286C36.2738 20.648 36.9813 21.2492 37.5268 21.9857C38.0679 22.7196 38.4482 23.5554 38.6893 24.4982C38.9196 25.425 39 26.4 38.9357 27.4286ZM32.4 22.3071C31.8214 22.3071 31.3339 22.4089 30.9589 22.6071C30.5839 22.8054 30.2732 23.0518 30.0375 23.3357C29.813 23.6099 29.6471 23.9271 29.55 24.2679C29.4643 24.5518 29.4054 24.8411 29.3839 25.1357H35.3036C35.2179 24.2089 34.8964 23.5232 34.4679 23.0411C34.0179 22.5643 33.2946 22.3071 32.4 22.3071Z" fill="white"/>
</svg>
