<svg width="445" height="44" viewBox="0 0 445 44" fill="none" xmlns="http://www.w3.org/2000/svg">
<rect width="445" height="44" rx="10" fill="#F6F6F6"/>
<path d="M420 20.17C420.001 20.3194 419.968 20.467 419.904 20.602C419.84 20.737 419.746 20.8559 419.63 20.95L413.63 25.78C413.451 25.9271 413.227 26.0075 412.995 26.0075C412.763 26.0075 412.539 25.9271 412.36 25.78L406.36 20.78C406.156 20.6103 406.027 20.3663 406.003 20.1019C405.979 19.8375 406.06 19.5742 406.23 19.37C406.4 19.1658 406.644 19.0373 406.908 19.013C407.173 18.9886 407.436 19.0703 407.64 19.24L413 23.71L418.36 19.39C418.507 19.2677 418.686 19.19 418.875 19.1661C419.065 19.1423 419.257 19.1732 419.43 19.2552C419.602 19.3373 419.748 19.4671 419.849 19.6292C419.95 19.7913 420.002 19.979 420 20.17Z" fill="#101010" fill-opacity="0.5"/>
</svg>
