<svg width="24" height="24" viewBox="0 0 24 24" fill="none" xmlns="http://www.w3.org/2000/svg">
<path d="M19 10.1701C19.0005 10.3195 18.9675 10.4671 18.9035 10.6021C18.8394 10.737 18.746 10.856 18.63 10.9501L12.63 15.7801C12.451 15.9272 12.2266 16.0076 11.995 16.0076C11.7633 16.0076 11.5389 15.9272 11.36 15.7801L5.35997 10.7801C5.15575 10.6103 5.02733 10.3664 5.00295 10.102C4.97857 9.83758 5.06023 9.5743 5.22997 9.37008C5.39971 9.16586 5.64362 9.03744 5.90805 9.01306C6.17247 8.98868 6.43575 9.07034 6.63997 9.24008L12 13.7101L17.36 9.39008C17.5068 9.2678 17.6855 9.19012 17.875 9.16624C18.0646 9.14236 18.257 9.17328 18.4295 9.25533C18.6021 9.33739 18.7475 9.46715 18.8486 9.62926C18.9497 9.79137 19.0022 9.97905 19 10.1701Z" fill="#101010"/>
</svg>
