<svg width="40" height="40" viewBox="0 0 40 40" fill="none" xmlns="http://www.w3.org/2000/svg">
<circle cx="20" cy="20" r="20" fill="#FF5840"/>
<path d="M30.5 26H27.5V23H26V26H23V27.5H26V30.5H27.5V27.5H30.5V26Z" fill="#F6F6F6"/>
<path d="M20 29H14V11H20V15.5C20.0012 15.8975 20.1596 16.2783 20.4407 16.5594C20.7217 16.8404 21.1025 16.9988 21.5 17H26V20H27.5V15.5C27.5026 15.4014 27.4839 15.3035 27.4451 15.2128C27.4062 15.1222 27.3482 15.0411 27.275 14.975L22.025 9.72501C21.959 9.65177 21.8778 9.59372 21.7872 9.55488C21.6966 9.51603 21.5986 9.49731 21.5 9.50001H14C13.6025 9.5012 13.2217 9.65961 12.9407 9.94066C12.6596 10.2217 12.5012 10.6026 12.5 11V29C12.5012 29.3975 12.6596 29.7783 12.9407 30.0594C13.2217 30.3404 13.6025 30.4988 14 30.5H20V29ZM21.5 11.3L25.7 15.5H21.5V11.3Z" fill="#F6F6F6"/>
</svg>
