<svg width="24" height="24" viewBox="0 0 24 24" fill="none" xmlns="http://www.w3.org/2000/svg">
<path d="M5.00003 13.83C4.99952 13.6806 5.03249 13.533 5.09652 13.398C5.16055 13.263 5.25401 13.1441 5.37003 13.05L11.37 8.21998C11.549 8.0729 11.7734 7.99249 12.005 7.99249C12.2367 7.99249 12.4611 8.0729 12.64 8.21998L18.64 13.22C18.8442 13.3897 18.9727 13.6336 18.997 13.8981C19.0214 14.1625 18.9398 14.4258 18.77 14.63C18.6003 14.8342 18.3564 14.9626 18.092 14.987C17.8275 15.0114 17.5642 14.9297 17.36 14.76L12 10.29L6.64003 14.61C6.49324 14.7323 6.3145 14.8099 6.12495 14.8338C5.93541 14.8577 5.74298 14.8268 5.57045 14.7447C5.39793 14.6627 5.25252 14.5329 5.15143 14.3708C5.05033 14.2087 4.9978 14.021 5.00003 13.83Z" fill="#101010"/>
</svg>
