<svg width="125" height="26" viewBox="0 0 125 26" fill="none" xmlns="http://www.w3.org/2000/svg">
<path d="M53.6912 21.5243C52.5149 21.5243 51.5032 21.2751 50.6559 20.7767C49.8136 20.2733 49.1656 19.5755 48.7121 18.6834C48.2635 17.7912 48.0393 16.7645 48.0393 15.6032C48.0393 14.427 48.266 13.3953 48.7196 12.5081C49.1781 11.616 49.8285 10.9207 50.6708 10.4223C51.5131 9.91891 52.5149 9.66721 53.6762 9.66721C54.678 9.66721 55.5552 9.84913 56.3078 10.213C57.0604 10.5768 57.656 11.0877 58.0946 11.7456C58.5332 12.4035 58.7749 13.176 58.8198 14.0631H55.8144C55.7296 13.49 55.5054 13.029 55.1415 12.6801C54.7827 12.3262 54.3117 12.1493 53.7285 12.1493C53.2351 12.1493 52.804 12.2838 52.4352 12.553C52.0713 12.8171 51.7873 13.2034 51.5829 13.7118C51.3786 14.2201 51.2764 14.8357 51.2764 15.5584C51.2764 16.291 51.3761 16.914 51.5754 17.4274C51.7798 17.9407 52.0664 18.332 52.4352 18.6011C52.804 18.8703 53.2351 19.0048 53.7285 19.0048C54.0924 19.0048 54.4188 18.9301 54.7079 18.7805C55.002 18.631 55.2437 18.4142 55.4331 18.1301C55.6275 17.8411 55.7546 17.4947 55.8144 17.091H58.8198C58.7699 17.9681 58.5307 18.7407 58.1021 19.4085C57.6784 20.0714 57.0928 20.5898 56.3452 20.9636C55.5976 21.3374 54.7129 21.5243 53.6912 21.5243ZM67.6471 17.7788L70.7572 9.81673H73.1794L68.7013 21.3H66.5855L62.212 9.81673H64.6268L67.6471 17.7788ZM63.9016 9.81673V21.3H60.8589V9.81673H63.9016ZM71.5496 21.3V9.81673H74.555V21.3H71.5496ZM82.2516 21.5243C81.0704 21.5243 80.0537 21.285 79.2014 20.8066C78.3541 20.3231 77.7012 19.6403 77.2427 18.7581C76.7841 17.871 76.5549 16.8218 76.5549 15.6107C76.5549 14.4295 76.7841 13.3928 77.2427 12.5006C77.7012 11.6085 78.3466 10.9132 79.179 10.4148C80.0163 9.91642 80.9982 9.66721 82.1246 9.66721C82.8821 9.66721 83.5874 9.78932 84.2403 10.0335C84.8982 10.2728 85.4713 10.6341 85.9598 11.1176C86.4532 11.601 86.837 12.2091 87.1111 12.9417C87.3852 13.6694 87.5223 14.5217 87.5223 15.4986V16.3733H77.8258V14.3996H84.5244C84.5244 13.941 84.4247 13.5348 84.2253 13.181C84.026 12.8271 83.7494 12.5505 83.3955 12.3511C83.0466 12.1468 82.6404 12.0446 82.1769 12.0446C81.6934 12.0446 81.2648 12.1567 80.891 12.381C80.5222 12.6003 80.2331 12.8969 80.0238 13.2707C79.8144 13.6395 79.7073 14.0507 79.7023 14.5042V16.3807C79.7023 16.9489 79.807 17.4398 80.0163 17.8535C80.2306 18.2672 80.5321 18.5862 80.9209 18.8105C81.3097 19.0347 81.7707 19.1469 82.304 19.1469C82.6578 19.1469 82.9818 19.097 83.2759 18.9974C83.5699 18.8977 83.8216 18.7482 84.031 18.5488C84.2403 18.3494 84.3998 18.1052 84.5094 17.8161L87.455 18.0105C87.3055 18.7182 86.999 19.3363 86.5354 19.8646C86.0769 20.3879 85.4838 20.7966 84.7561 21.0907C84.0334 21.3797 83.1986 21.5243 82.2516 21.5243ZM88.7147 12.3212V9.81673H99.1214V12.3212H95.4208V21.3H92.3855V12.3212H88.7147Z" fill="#101010"/>
<path d="M102.099 21.4944C101.595 21.4944 101.182 21.3199 100.858 20.971C100.539 20.6222 100.394 20.1985 100.424 19.7001C100.459 19.2067 100.666 18.7905 101.045 18.4516C101.428 18.1077 101.869 17.9358 102.368 17.9358C102.846 17.9358 103.25 18.1077 103.579 18.4516C103.908 18.7955 104.053 19.2117 104.013 19.7001C103.988 20.0291 103.881 20.3306 103.691 20.6047C103.507 20.8739 103.273 21.0907 102.988 21.2551C102.704 21.4146 102.408 21.4944 102.099 21.4944ZM109.61 21.5168C108.883 21.5168 108.252 21.3897 107.719 21.1355C107.191 20.8763 106.802 20.4926 106.553 19.9842C106.303 19.4758 106.241 18.8453 106.366 18.0928C106.475 17.4548 106.682 16.9215 106.986 16.4929C107.295 16.0593 107.672 15.7104 108.115 15.4462C108.559 15.1821 109.05 14.9802 109.588 14.8407C110.131 14.7011 110.692 14.6064 111.27 14.5566C111.938 14.4868 112.481 14.4195 112.9 14.3547C113.323 14.2899 113.64 14.1977 113.849 14.0781C114.059 13.9535 114.186 13.7691 114.231 13.5249V13.48C114.305 13.0115 114.218 12.6477 113.969 12.3885C113.725 12.1243 113.333 11.9923 112.795 11.9923C112.227 11.9923 111.744 12.1169 111.345 12.3661C110.951 12.6153 110.669 12.9318 110.5 13.3155L107.599 13.0763C107.858 12.3785 108.25 11.7755 108.773 11.2671C109.301 10.7537 109.937 10.36 110.679 10.0859C111.422 9.80677 112.254 9.66721 113.176 9.66721C113.814 9.66721 114.41 9.74197 114.963 9.89149C115.521 10.041 116.002 10.2728 116.406 10.5868C116.815 10.9008 117.109 11.3045 117.288 11.7979C117.473 12.2863 117.51 12.872 117.4 13.5548L116.107 21.3H113.087L113.356 19.7076H113.266C113.022 20.0664 112.723 20.3829 112.369 20.657C112.015 20.9262 111.609 21.138 111.15 21.2925C110.692 21.442 110.179 21.5168 109.61 21.5168ZM110.889 19.3188C111.352 19.3188 111.778 19.2266 112.167 19.0422C112.561 18.8528 112.885 18.5986 113.139 18.2797C113.398 17.9607 113.563 17.5993 113.632 17.1956L113.827 15.977C113.727 16.0418 113.583 16.0991 113.393 16.149C113.209 16.1988 113.007 16.2462 112.788 16.291C112.573 16.3309 112.357 16.3683 112.137 16.4032C111.918 16.4331 111.721 16.463 111.547 16.4929C111.163 16.5477 110.819 16.6349 110.515 16.7545C110.211 16.8742 109.964 17.0361 109.775 17.2405C109.585 17.4398 109.468 17.689 109.423 17.9881C109.354 18.4217 109.456 18.7531 109.73 18.9824C110.009 19.2067 110.395 19.3188 110.889 19.3188ZM118.578 21.3L120.492 9.81673H123.677L121.763 21.3H118.578ZM122.413 8.32152C121.94 8.32152 121.548 8.16452 121.239 7.85053C120.935 7.53155 120.811 7.15276 120.866 6.71416C120.92 6.2656 121.135 5.88681 121.509 5.5778C121.882 5.2638 122.306 5.10681 122.779 5.10681C123.253 5.10681 123.639 5.2638 123.938 5.5778C124.237 5.88681 124.362 6.2656 124.312 6.71416C124.262 7.15276 124.05 7.53155 123.677 7.85053C123.308 8.16452 122.887 8.32152 122.413 8.32152Z" fill="#FF5840"/>
<path d="M11.2555 1.33331H25.637L15.0637 16.6486H0.68219L11.2555 1.33331Z" fill="#FF5840"/>
<path d="M11.8853 18.068L7.78998 24H22.8537L33.427 8.68469H22.309L15.831 18.068H11.8853Z" fill="#101010"/>
</svg>
