<svg width="24" height="24" viewBox="0 0 24 24" fill="none" xmlns="http://www.w3.org/2000/svg">
<g clip-path="url(#clip0_31_1351)">
<path d="M2.81332 15.4667L1.54665 20.9333C1.50296 21.1332 1.50445 21.3403 1.55104 21.5394C1.59762 21.7386 1.68811 21.9249 1.81589 22.0846C1.94368 22.2444 2.10554 22.3735 2.28964 22.4627C2.47374 22.5519 2.67543 22.5988 2.87999 22.6C2.9753 22.6096 3.07134 22.6096 3.16665 22.6L8.66665 21.3334L19.2267 10.8133L13.3333 4.93335L2.81332 15.4667Z" fill="white"/>
<path d="M22.5466 5.54661L18.6133 1.61327C18.3547 1.35598 18.0048 1.21155 17.64 1.21155C17.2752 1.21155 16.9252 1.35598 16.6666 1.61327L14.48 3.79994L20.3666 9.68661L22.5533 7.49994C22.6813 7.37133 22.7826 7.21874 22.8516 7.05092C22.9205 6.88309 22.9557 6.70332 22.955 6.52189C22.9544 6.34046 22.918 6.16093 22.848 5.99358C22.7779 5.82623 22.6755 5.67434 22.5466 5.54661Z" fill="white"/>
</g>
<defs>
<clipPath id="clip0_31_1351">
<rect width="24" height="24" fill="white"/>
</clipPath>
</defs>
</svg>
