<svg width="40" height="40" viewBox="0 0 40 40" fill="none" xmlns="http://www.w3.org/2000/svg">
<path d="M4.28571 9.64291C4.28571 8.22211 4.85012 6.8595 5.85478 5.85484C6.85944 4.85018 8.22205 4.28577 9.64285 4.28577H30.3571C31.7779 4.28577 33.1405 4.85018 34.1452 5.85484C35.1499 6.8595 35.7143 8.22211 35.7143 9.64291V20.7143C35.051 20.2155 34.3318 19.7955 33.5714 19.4629V9.64291C33.5714 8.79043 33.2328 7.97286 32.63 7.37007C32.0272 6.76727 31.2096 6.42862 30.3571 6.42862H9.64285C8.79037 6.42862 7.9728 6.76727 7.37001 7.37007C6.76721 7.97286 6.42856 8.79043 6.42856 9.64291V30.3572C6.42856 31.2097 6.76721 32.0272 7.37001 32.63C7.9728 33.2328 8.79037 33.5715 9.64285 33.5715H19.4628C19.7971 34.3358 20.2186 35.0543 20.7128 35.7143H9.64285C8.22205 35.7143 6.85944 35.1499 5.85478 34.1453C4.85012 33.1406 4.28571 31.778 4.28571 30.3572V9.64291ZM30.3571 18.5715C30.6413 18.5715 30.9138 18.4586 31.1147 18.2577C31.3157 18.0567 31.4286 17.7842 31.4286 17.5001C31.4286 17.2159 31.3157 16.9434 31.1147 16.7424C30.9138 16.5415 30.6413 16.4286 30.3571 16.4286H19.6428C19.3587 16.4286 19.0862 16.5415 18.8852 16.7424C18.6843 16.9434 18.5714 17.2159 18.5714 17.5001C18.5714 17.7842 18.6843 18.0567 18.8852 18.2577C19.0862 18.4586 19.3587 18.5715 19.6428 18.5715H30.3571ZM8.57142 10.3572C8.57142 10.073 8.6843 9.80051 8.88523 9.59958C9.08617 9.39865 9.35869 9.28577 9.64285 9.28577H30.3571C30.6413 9.28577 30.9138 9.39865 31.1147 9.59958C31.3157 9.80051 31.4286 10.073 31.4286 10.3572C31.4286 10.6414 31.3157 10.9139 31.1147 11.1148C30.9138 11.3157 30.6413 11.4286 30.3571 11.4286H9.64285C9.35869 11.4286 9.08617 11.3157 8.88523 11.1148C8.6843 10.9139 8.57142 10.6414 8.57142 10.3572ZM12.1428 14.2858C11.1956 14.2858 10.2872 14.662 9.61747 15.3318C8.94769 16.0016 8.57142 16.91 8.57142 17.8572C8.57142 18.8044 8.94769 19.7128 9.61747 20.3826C10.2872 21.0523 11.1956 21.4286 12.1428 21.4286C13.09 21.4286 13.9985 21.0523 14.6682 20.3826C15.338 19.7128 15.7143 18.8044 15.7143 17.8572C15.7143 16.91 15.338 16.0016 14.6682 15.3318C13.9985 14.662 13.09 14.2858 12.1428 14.2858ZM10.7143 17.8572C10.7143 17.4783 10.8648 17.115 11.1327 16.847C11.4006 16.5791 11.764 16.4286 12.1428 16.4286C12.5217 16.4286 12.8851 16.5791 13.153 16.847C13.4209 17.115 13.5714 17.4783 13.5714 17.8572C13.5714 18.2361 13.4209 18.5994 13.153 18.8673C12.8851 19.1353 12.5217 19.2858 12.1428 19.2858C11.764 19.2858 11.4006 19.1353 11.1327 18.8673C10.8648 18.5994 10.7143 18.2361 10.7143 17.8572ZM8.57142 27.8572C8.57142 26.91 8.94769 26.0016 9.61747 25.3318C10.2872 24.662 11.1956 24.2858 12.1428 24.2858C13.09 24.2858 13.9985 24.662 14.6682 25.3318C15.338 26.0016 15.7143 26.91 15.7143 27.8572C15.7143 28.8044 15.338 29.7128 14.6682 30.3826C13.9985 31.0523 13.09 31.4286 12.1428 31.4286C11.1956 31.4286 10.2872 31.0523 9.61747 30.3826C8.94769 29.7128 8.57142 28.8044 8.57142 27.8572ZM12.1428 26.4286C11.764 26.4286 11.4006 26.5791 11.1327 26.847C10.8648 27.115 10.7143 27.4783 10.7143 27.8572C10.7143 28.2361 10.8648 28.5994 11.1327 28.8673C11.4006 29.1353 11.764 29.2858 12.1428 29.2858C12.5217 29.2858 12.8851 29.1353 13.153 28.8673C13.4209 28.5994 13.5714 28.2361 13.5714 27.8572C13.5714 27.4783 13.4209 27.115 13.153 26.847C12.8851 26.5791 12.5217 26.4286 12.1428 26.4286ZM38.5714 29.2858C38.5714 31.7485 37.5931 34.1103 35.8517 35.8518C34.1103 37.5932 31.7484 38.5715 29.2857 38.5715C26.823 38.5715 24.4611 37.5932 22.7197 35.8518C20.9783 34.1103 20 31.7485 20 29.2858C20 26.823 20.9783 24.4612 22.7197 22.7198C24.4611 20.9784 26.823 20.0001 29.2857 20.0001C31.7484 20.0001 34.1103 20.9784 35.8517 22.7198C37.5931 24.4612 38.5714 26.823 38.5714 29.2858ZM30 23.5715C30 23.382 29.9247 23.2004 29.7908 23.0664C29.6568 22.9324 29.4751 22.8572 29.2857 22.8572C29.0963 22.8572 28.9146 22.9324 28.7806 23.0664C28.6467 23.2004 28.5714 23.382 28.5714 23.5715V28.5715H23.5714C23.382 28.5715 23.2003 28.6467 23.0663 28.7807C22.9324 28.9146 22.8571 29.0963 22.8571 29.2858C22.8571 29.4752 22.9324 29.6569 23.0663 29.7908C23.2003 29.9248 23.382 30.0001 23.5714 30.0001H28.5714V35C28.5714 35.1895 28.6467 35.3712 28.7806 35.5051C28.9146 35.6391 29.0963 35.7143 29.2857 35.7143C29.4751 35.7143 29.6568 35.6391 29.7908 35.5051C29.9247 35.3712 30 35.1895 30 35V30.0001H35C35.1894 30.0001 35.3711 29.9248 35.5051 29.7908C35.639 29.6569 35.7143 29.4752 35.7143 29.2858C35.7143 29.0963 35.639 28.9146 35.5051 28.7807C35.3711 28.6467 35.1894 28.5715 35 28.5715H30V23.5715Z" fill="white"/>
</svg>
