<svg width="24" height="24" viewBox="0 0 24 24" fill="none" xmlns="http://www.w3.org/2000/svg">
<path d="M17.4712 5.25182C17.3462 5.15625 17.2028 5.08554 17.0493 5.04376C16.8958 5.00198 16.7353 4.98996 16.577 5.00838C16.4187 5.02681 16.2658 5.07533 16.127 5.15113C15.9882 5.22693 15.8663 5.32852 15.7684 5.45003L7.3152 15.9439L3.17312 11.0701C3.07596 10.9452 2.95381 10.8405 2.81392 10.7621C2.67402 10.6836 2.51924 10.6332 2.35875 10.6136C2.19826 10.5941 2.03535 10.6059 1.87967 10.6483C1.72399 10.6907 1.57872 10.7629 1.45248 10.8605C1.32625 10.9582 1.22162 11.0793 1.14482 11.2168C1.06801 11.3542 1.02059 11.5052 1.00536 11.6607C0.990136 11.8162 1.00742 11.973 1.05619 12.122C1.10495 12.2709 1.18421 12.4088 1.28925 12.5276L6.32497 18.5674C6.43862 18.7027 6.58223 18.8117 6.74523 18.8863C6.90823 18.961 7.08649 18.9994 7.2669 18.9988C7.4584 19.0071 7.64918 18.9712 7.82347 18.8942C7.99776 18.8171 8.15055 18.7011 8.26921 18.5558L17.7248 6.89586C17.8212 6.7723 17.8911 6.63145 17.9306 6.48151C17.9701 6.33158 17.9782 6.17556 17.9546 6.02255C17.931 5.86954 17.8761 5.72259 17.7931 5.59027C17.7101 5.45794 17.6007 5.34289 17.4712 5.25182ZM23.5092 5.25182C23.3842 5.15625 23.2408 5.08554 23.0873 5.04376C22.9339 5.00198 22.7734 4.98996 22.6151 5.00838C22.4568 5.02681 22.3038 5.07533 22.165 5.15113C22.0262 5.22693 21.9044 5.32852 21.8065 5.45003L13.3532 15.9439L12.6166 15.0695L11.095 16.9584L12.4234 18.5558C12.537 18.691 12.6806 18.8 12.8436 18.8747C13.0066 18.9493 13.1849 18.9878 13.3653 18.9872C13.5467 18.9864 13.7256 18.9461 13.8886 18.8694C14.0517 18.7927 14.1948 18.6815 14.3072 18.5441L23.7628 6.8842C23.8573 6.761 23.9257 6.62101 23.9641 6.47224C24.0026 6.32347 24.0102 6.16885 23.9866 6.01722C23.9631 5.8656 23.9088 5.71995 23.8269 5.58861C23.7449 5.45727 23.637 5.34282 23.5092 5.25182Z" fill="white"/>
<path d="M7.7124 13L9 11.5757L8.80037 11.3646C8.72157 11.2685 8.62149 11.1873 8.50616 11.1261C8.39084 11.0649 8.26264 11.0249 8.12929 11.0085C7.99595 10.992 7.8602 10.9996 7.73024 11.0305C7.60027 11.0615 7.47876 11.1154 7.37303 11.1888C7.2705 11.2614 7.18525 11.351 7.12219 11.4527C7.05914 11.5544 7.01951 11.666 7.0056 11.7812C6.99169 11.8964 7.00376 12.0129 7.04112 12.124C7.07848 12.2351 7.1404 12.3386 7.22331 12.4285L7.7124 13Z" fill="white"/>
</svg>
