<svg width="90" height="24" viewBox="0 0 90 24" fill="none" xmlns="http://www.w3.org/2000/svg">
<path d="M8 16C9.77498 15.9996 11.4988 15.4054 12.897 14.312L17.293 18.708L18.707 17.294L14.311 12.898C15.405 11.4997 15.9996 9.77544 16 8C16 3.589 12.411 0 8 0C3.589 0 0 3.589 0 8C0 12.411 3.589 16 8 16ZM8 2C11.309 2 14 4.691 14 8C14 11.309 11.309 14 8 14C4.691 14 2 11.309 2 8C2 4.691 4.691 2 8 2Z" fill="#101010" fill-opacity="0.5"/>
<path d="M41.3491 4.45455V19H39.5877V6.01705H32.2582V19H30.4968V4.45455H41.3491ZM49.1065 19.2273C48.1217 19.2273 47.2576 18.9929 46.5142 18.5241C45.7756 18.0554 45.1979 17.3996 44.7812 16.5568C44.3693 15.714 44.1634 14.7292 44.1634 13.6023C44.1634 12.4659 44.3693 11.474 44.7812 10.6264C45.1979 9.77888 45.7756 9.12074 46.5142 8.65199C47.2576 8.18324 48.1217 7.94886 49.1065 7.94886C50.0914 7.94886 50.9531 8.18324 51.6918 8.65199C52.4351 9.12074 53.0128 9.77888 53.4247 10.6264C53.8414 11.474 54.0497 12.4659 54.0497 13.6023C54.0497 14.7292 53.8414 15.714 53.4247 16.5568C53.0128 17.3996 52.4351 18.0554 51.6918 18.5241C50.9531 18.9929 50.0914 19.2273 49.1065 19.2273ZM49.1065 17.7216C49.8546 17.7216 50.4702 17.5298 50.9531 17.1463C51.4361 16.7628 51.7936 16.2585 52.0256 15.6335C52.2576 15.0085 52.3736 14.3314 52.3736 13.6023C52.3736 12.8731 52.2576 12.1937 52.0256 11.5639C51.7936 10.9342 51.4361 10.4252 50.9531 10.0369C50.4702 9.64867 49.8546 9.45455 49.1065 9.45455C48.3584 9.45455 47.7429 9.64867 47.2599 10.0369C46.777 10.4252 46.4195 10.9342 46.1875 11.5639C45.9555 12.1937 45.8395 12.8731 45.8395 13.6023C45.8395 14.3314 45.9555 15.0085 46.1875 15.6335C46.4195 16.2585 46.777 16.7628 47.2599 17.1463C47.7429 17.5298 48.3584 17.7216 49.1065 17.7216ZM58.2844 16.5284L63.5401 8.09091H65.4719V19H63.7958V10.5625L58.5685 19H56.6083V8.09091H58.2844V16.5284ZM72.9737 19.2273C71.951 19.2273 71.0703 18.9858 70.3317 18.5028C69.593 18.0199 69.0249 17.3546 68.6271 16.5071C68.2294 15.6596 68.0305 14.6913 68.0305 13.6023C68.0305 12.4943 68.2341 11.5166 68.6413 10.669C69.0533 9.81676 69.6262 9.15152 70.3601 8.6733C71.0987 8.19034 71.9605 7.94886 72.9453 7.94886C73.7124 7.94886 74.4036 8.09091 75.0192 8.375C75.6347 8.65909 76.139 9.05682 76.532 9.56818C76.925 10.0795 77.1688 10.6761 77.2635 11.358H75.5874C75.4595 10.8608 75.1754 10.4205 74.7351 10.0369C74.2995 9.64867 73.7124 9.45455 72.9737 9.45455C72.3203 9.45455 71.7474 9.625 71.255 9.96591C70.7673 10.3021 70.3861 10.7779 70.1115 11.3935C69.8416 12.0043 69.7067 12.7216 69.7067 13.5455C69.7067 14.3883 69.8393 15.1222 70.1044 15.7472C70.3743 16.3722 70.7531 16.8575 71.2408 17.2031C71.7332 17.5488 72.3108 17.7216 72.9737 17.7216C73.4093 17.7216 73.8047 17.6458 74.1598 17.4943C74.5149 17.3428 74.8156 17.125 75.0618 16.8409C75.308 16.5568 75.4832 16.2159 75.5874 15.8182H77.2635C77.1688 16.4621 76.9344 17.0421 76.5604 17.5582C76.1911 18.0696 75.701 18.4768 75.0902 18.7798C74.4841 19.0781 73.7786 19.2273 72.9737 19.2273ZM79.7138 19V8.09091H81.3899V12.8352H82.4979L86.4183 8.09091H88.5774L84.174 13.3466L88.6342 19H86.4751L82.8956 14.3977H81.3899V19H79.7138Z" fill="#101010" fill-opacity="0.5"/>
</svg>
