<svg width="416" height="44" viewBox="0 0 416 44" fill="none" xmlns="http://www.w3.org/2000/svg">
<rect width="416" height="44" rx="10" fill="#F6F6F6"/>
<path d="M391 20.17C391.001 20.3194 390.968 20.467 390.904 20.602C390.84 20.737 390.746 20.8559 390.63 20.95L384.63 25.78C384.451 25.9271 384.227 26.0075 383.995 26.0075C383.763 26.0075 383.539 25.9271 383.36 25.78L377.36 20.78C377.156 20.6103 377.027 20.3663 377.003 20.1019C376.979 19.8375 377.06 19.5742 377.23 19.37C377.4 19.1658 377.644 19.0373 377.908 19.013C378.173 18.9886 378.436 19.0703 378.64 19.24L384 23.71L389.36 19.39C389.507 19.2677 389.686 19.19 389.875 19.1661C390.065 19.1423 390.257 19.1732 390.43 19.2552C390.602 19.3373 390.748 19.4671 390.849 19.6292C390.95 19.7913 391.002 19.979 391 20.17Z" fill="#101010" fill-opacity="0.5"/>
</svg>
