<svg width="113" height="24" viewBox="0 0 113 24" fill="none" xmlns="http://www.w3.org/2000/svg">
<path d="M5 22.5H17V24H3.5V21H0.5V0H10.5664L15.2773 4.71094L20 9.43359V10.5H12.5V4.5H5V22.5ZM14 9H17.4336L14 5.56641V9ZM3.5 19.5V3H11.4336L9.93359 1.5H2V19.5H3.5ZM19.25 14.6953L22.9648 18.4102L21.9102 19.4648L20 17.5664V24H18.5V17.5664L16.5898 19.4648L15.5352 18.4102L19.25 14.6953ZM23 12V13.5H15.5V12H23Z" fill="#101010" fill-opacity="0.2"/>
<path d="M38.1364 18.1591C37.3864 18.1591 36.7178 18.0303 36.1307 17.7727C35.5473 17.5152 35.0833 17.1572 34.7386 16.6989C34.3977 16.2367 34.2121 15.7008 34.1818 15.0909H35.6136C35.6439 15.4659 35.7727 15.7898 36 16.0625C36.2273 16.3314 36.5246 16.5398 36.892 16.6875C37.2595 16.8352 37.6667 16.9091 38.1136 16.9091C38.6136 16.9091 39.0568 16.822 39.4432 16.6477C39.8295 16.4735 40.1326 16.2311 40.3523 15.9205C40.572 15.6098 40.6818 15.25 40.6818 14.8409C40.6818 14.4129 40.5758 14.036 40.3636 13.7102C40.1515 13.3807 39.8409 13.1231 39.4318 12.9375C39.0227 12.7519 38.5227 12.6591 37.9318 12.6591H37V11.4091H37.9318C38.3939 11.4091 38.7992 11.3258 39.1477 11.1591C39.5 10.9924 39.7746 10.7576 39.9716 10.4545C40.1723 10.1515 40.2727 9.79545 40.2727 9.38636C40.2727 8.99242 40.1856 8.64962 40.0114 8.35795C39.8371 8.06629 39.5909 7.83901 39.2727 7.67614C38.9583 7.51326 38.5871 7.43182 38.1591 7.43182C37.7576 7.43182 37.3788 7.50568 37.0227 7.65341C36.6705 7.79735 36.3826 8.00758 36.1591 8.28409C35.9356 8.55682 35.8144 8.88636 35.7955 9.27273H34.4318C34.4545 8.66288 34.6383 8.12879 34.983 7.67045C35.3277 7.20833 35.7784 6.84848 36.3352 6.59091C36.8958 6.33333 37.5114 6.20455 38.1818 6.20455C38.9015 6.20455 39.5189 6.35038 40.0341 6.64205C40.5492 6.92992 40.9451 7.31061 41.2216 7.78409C41.4981 8.25758 41.6364 8.76894 41.6364 9.31818C41.6364 9.97348 41.464 10.5322 41.1193 10.9943C40.7784 11.4564 40.3144 11.7765 39.7273 11.9545V12.0455C40.4621 12.1667 41.036 12.4792 41.4489 12.983C41.8617 13.483 42.0682 14.1023 42.0682 14.8409C42.0682 15.4735 41.8958 16.0417 41.5511 16.5455C41.2102 17.0455 40.7443 17.4394 40.1534 17.7273C39.5625 18.0152 38.8902 18.1591 38.1364 18.1591ZM46.983 18.2045C46.4299 18.2045 45.928 18.1004 45.4773 17.892C45.0265 17.6799 44.6686 17.375 44.4034 16.9773C44.1383 16.5758 44.0057 16.0909 44.0057 15.5227C44.0057 15.0227 44.1042 14.6174 44.3011 14.3068C44.4981 13.9924 44.7614 13.7462 45.0909 13.5682C45.4205 13.3902 45.7841 13.2576 46.1818 13.1705C46.5833 13.0795 46.9867 13.0076 47.392 12.9545C47.9223 12.8864 48.3523 12.8352 48.6818 12.8011C49.0152 12.7633 49.2576 12.7008 49.4091 12.6136C49.5644 12.5265 49.642 12.375 49.642 12.1591V12.1136C49.642 11.553 49.4886 11.1174 49.1818 10.8068C48.8788 10.4962 48.4186 10.3409 47.8011 10.3409C47.161 10.3409 46.6591 10.4811 46.2955 10.7614C45.9318 11.0417 45.6761 11.3409 45.5284 11.6591L44.2557 11.2045C44.483 10.6742 44.786 10.2614 45.1648 9.96591C45.5473 9.66667 45.964 9.45833 46.4148 9.34091C46.8693 9.2197 47.3163 9.15909 47.7557 9.15909C48.036 9.15909 48.358 9.19318 48.7216 9.26136C49.089 9.32576 49.4432 9.46023 49.7841 9.66477C50.1288 9.86932 50.4148 10.178 50.642 10.5909C50.8693 11.0038 50.983 11.5568 50.983 12.25V18H49.642V16.8182H49.5739C49.483 17.0076 49.3314 17.2102 49.1193 17.4261C48.9072 17.642 48.625 17.8258 48.2727 17.9773C47.9205 18.1288 47.4905 18.2045 46.983 18.2045ZM47.1875 17C47.7178 17 48.1648 16.8958 48.5284 16.6875C48.8958 16.4792 49.1723 16.2102 49.358 15.8807C49.5473 15.5511 49.642 15.2045 49.642 14.8409V13.6136C49.5852 13.6818 49.4602 13.7443 49.267 13.8011C49.0777 13.8542 48.858 13.9015 48.608 13.9432C48.3617 13.9811 48.1212 14.0152 47.8864 14.0455C47.6553 14.072 47.4678 14.0947 47.3239 14.1136C46.9754 14.1591 46.6496 14.233 46.3466 14.3352C46.0473 14.4337 45.8049 14.5833 45.6193 14.7841C45.4375 14.9811 45.3466 15.25 45.3466 15.5909C45.3466 16.0568 45.5189 16.4091 45.8636 16.6477C46.2121 16.8826 46.6534 17 47.1875 17ZM58.8168 9.27273V10.5227H54.7713V18H53.4304V9.27273H58.8168ZM60.7741 21.2727V9.27273H62.0696V10.6591H62.2287C62.3272 10.5076 62.4635 10.3144 62.6378 10.0795C62.8158 9.84091 63.0696 9.62879 63.3991 9.44318C63.7325 9.25379 64.1832 9.15909 64.7514 9.15909C65.4863 9.15909 66.134 9.3428 66.6946 9.71023C67.2552 10.0777 67.6927 10.5985 68.0071 11.2727C68.3215 11.947 68.4787 12.7424 68.4787 13.6591C68.4787 14.5833 68.3215 15.3845 68.0071 16.0625C67.6927 16.7367 67.2571 17.2595 66.7003 17.6307C66.1435 17.9981 65.5014 18.1818 64.7741 18.1818C64.2135 18.1818 63.7647 18.089 63.4276 17.9034C63.0904 17.714 62.831 17.5 62.6491 17.2614C62.4673 17.0189 62.3272 16.8182 62.2287 16.6591H62.1151V21.2727H60.7741ZM62.0923 13.6364C62.0923 14.2955 62.1889 14.8769 62.3821 15.3807C62.5753 15.8807 62.8575 16.2727 63.2287 16.5568C63.5999 16.8371 64.0545 16.9773 64.5923 16.9773C65.1529 16.9773 65.6207 16.8295 65.9957 16.5341C66.3745 16.2348 66.6586 15.8333 66.848 15.3295C67.0412 14.822 67.1378 14.2576 67.1378 13.6364C67.1378 13.0227 67.0431 12.4697 66.8537 11.9773C66.6681 11.4811 66.3859 11.089 66.0071 10.8011C65.6321 10.5095 65.1605 10.3636 64.5923 10.3636C64.0469 10.3636 63.5885 10.5019 63.2173 10.7784C62.8461 11.0511 62.5658 11.4337 62.3764 11.9261C62.187 12.4148 62.0923 12.9848 62.0923 13.6364ZM71.0753 21.2727C70.848 21.2727 70.6454 21.2538 70.4673 21.2159C70.2893 21.1818 70.1662 21.1477 70.098 21.1136L70.4389 19.9318C70.7647 20.0152 71.0526 20.0455 71.3026 20.0227C71.5526 20 71.7741 19.8883 71.9673 19.6875C72.1643 19.4905 72.3442 19.1705 72.5071 18.7273L72.7571 18.0455L69.5298 9.27273H70.9844L73.3935 16.2273H73.4844L75.8935 9.27273H77.348L73.6435 19.2727C73.4768 19.7235 73.2704 20.0966 73.0241 20.392C72.7779 20.6913 72.492 20.9129 72.1662 21.0568C71.8442 21.2008 71.4806 21.2727 71.0753 21.2727ZM78.5724 15.7727H80.0043C80.0346 16.1667 80.2126 16.4659 80.5384 16.6705C80.8679 16.875 81.2959 16.9773 81.8224 16.9773C82.3603 16.9773 82.8205 16.8674 83.2031 16.6477C83.5857 16.4242 83.777 16.0644 83.777 15.5682C83.777 15.2765 83.705 15.0227 83.5611 14.8068C83.4171 14.5871 83.2145 14.4167 82.9531 14.2955C82.6918 14.1742 82.383 14.1136 82.027 14.1136H80.527V12.9091H82.027C82.5611 12.9091 82.955 12.7879 83.2088 12.5455C83.4664 12.303 83.5952 12 83.5952 11.6364C83.5952 11.2462 83.4569 10.9337 83.1804 10.6989C82.9039 10.4602 82.5118 10.3409 82.0043 10.3409C81.4929 10.3409 81.0668 10.4564 80.7259 10.6875C80.3849 10.9148 80.205 11.2083 80.1861 11.5682H78.777C78.7921 11.0985 78.9361 10.6837 79.2088 10.3239C79.4815 9.96023 79.8527 9.67614 80.3224 9.47159C80.7921 9.26326 81.33 9.15909 81.9361 9.15909C82.5497 9.15909 83.0819 9.26705 83.5327 9.48295C83.9872 9.69508 84.3376 9.98485 84.5838 10.3523C84.8338 10.7159 84.9588 11.1288 84.9588 11.5909C84.9588 12.0833 84.8205 12.4811 84.544 12.7841C84.2675 13.0871 83.9209 13.303 83.5043 13.4318V13.5227C83.8338 13.5455 84.1198 13.6515 84.3622 13.8409C84.6084 14.0265 84.7997 14.2708 84.9361 14.5739C85.0724 14.8731 85.1406 15.2045 85.1406 15.5682C85.1406 16.0985 84.9986 16.5606 84.7145 16.9545C84.4304 17.3447 84.0402 17.6477 83.544 17.8636C83.0478 18.0758 82.4815 18.1818 81.8452 18.1818C81.2277 18.1818 80.6747 18.0814 80.1861 17.8807C79.6974 17.6761 79.3092 17.3939 79.0213 17.0341C78.7372 16.6705 78.5876 16.25 78.5724 15.7727ZM88.3651 16.0227L92.5696 9.27273H94.1151V18H92.7741V11.25L88.5923 18H87.0241V9.27273H88.3651V16.0227ZM95.3835 10.5227V9.27273H102.474V10.5227H99.6108V18H98.2699V10.5227H95.3835ZM105.589 12.4318H108.089C109.112 12.4318 109.894 12.6913 110.436 13.2102C110.978 13.7292 111.249 14.3864 111.249 15.1818C111.249 15.7045 111.127 16.1799 110.885 16.608C110.643 17.0322 110.286 17.3712 109.817 17.625C109.347 17.875 108.771 18 108.089 18H104.43V9.27273H105.771V16.75H108.089C108.62 16.75 109.055 16.6098 109.396 16.3295C109.737 16.0492 109.908 15.6894 109.908 15.25C109.908 14.7879 109.737 14.411 109.396 14.1193C109.055 13.8277 108.62 13.6818 108.089 13.6818H105.589V12.4318Z" fill="#101010" fill-opacity="0.2"/>
</svg>
