<svg width="16" height="16" viewBox="0 0 16 16" fill="none" xmlns="http://www.w3.org/2000/svg">
<path d="M12.5 4.62501L11.84 3.85719C11.2804 3.26943 10.607 2.80168 9.86094 2.4824C9.11483 2.16312 8.31155 1.99899 7.5 2C4.1875 2 1.5 4.68751 1.5 8.00001C1.5 11.3125 4.1875 14 7.5 14C8.74094 13.9999 9.95135 13.6153 10.9647 12.8989C11.978 12.1826 12.7444 11.1698 13.1584 10" stroke="#878787" stroke-width="2" stroke-miterlimit="10" stroke-linecap="round"/>
<path d="M14.5 3.04432V6.49995C14.5 6.63255 14.4474 6.75973 14.3536 6.8535C14.2598 6.94727 14.1326 6.99995 14 6.99995H10.5444C10.0988 6.99995 9.87566 6.46151 10.1907 6.14651L13.6466 2.69057C13.9616 2.37494 14.5 2.59869 14.5 3.04432Z" fill="#878787"/>
</svg>
